<!--?xml version="1.0" encoding="utf-8"?-->
<!-- Generator: Adobe Illustrator 15.1.0, SVG Export Plug-In . SVG Version: 6.00 Build 0)  -->

<svg version="1.1" id="_x32_" xmlns="http://www.w3.org/2000/svg" xmlns:xlink="http://www.w3.org/1999/xlink" x="0px" y="0px" width="512px" height="512px" viewBox="0 0 512 512" style="width: 256px; height: 256px; opacity: 1;" xml:space="preserve">
<style type="text/css">

	.st0{fill:#4B4B4B;}

</style>
<g>
	<path class="st0" d="M173.653,6.797C174.59,2.766,178.2-0.046,182.325,0l200.547,2.75c3.094,0.031,5.953,1.703,7.484,4.406
		c1.547,2.672,1.578,6,0.047,8.703l-79.328,140.703c-1.563,2.797-1.5,6.25,0.188,8.969c1.688,2.734,4.734,4.297,7.922,4.156
		l79.141-4.188c3.516-0.188,6.813,1.75,8.359,4.922s1.047,6.938-1.25,9.625L119.856,508.969c-2.875,3.328-7.766,4-11.438,1.594
		c-3.688-2.422-5.031-7.141-3.141-11.125L209.747,279.11c1.469-3.094,1-6.75-1.188-9.391c-2.203-2.641-5.719-3.734-9.031-2.844
		l-78.297,21.078c-2.984,0.797-6.172-0.031-8.391-2.188c-2.219-2.141-3.156-5.313-2.453-8.313L173.653,6.797z" style="fill: rgb(171, 171, 171);"></path>
</g>
</svg>
